<?xml version="1.0" encoding="utf-8"?>
<svg xmlns="http://www.w3.org/2000/svg"
	xmlns:xlink="http://www.w3.org/1999/xlink"
	width="172px" height="44px" viewBox="0 0 172 44">
<path fillRule="evenodd" d="M 168.24 44C 168.24 44 8.44 44 8.44 44 6.36 44 4.68 42.21 4.68 40 4.68 40 4.68 30 4.68 30 4.68 30.73 4.45 31.28 4.23 30.85 4.05 30.5 0.44 23.47 0.13 22.87-0.07 22.47-0.07 21.53 0.13 21.14 0.35 20.69 3.97 13.63 4.24 13.14 4.43 12.78 4.68 13.17 4.68 13.98 4.68 13.98 4.68 4 4.68 4 4.68 1.79 6.36-0 8.44-0 8.44-0 168.24-0 168.24-0 170.32-0 172 1.79 172 4 172 4 172 40 172 40 172 42.21 170.32 44 168.24 44Z" fill="rgb(255,45,0)"/></svg>